<svg viewBox="0 0 2000 2000" xmlns="http://www.w3.org/2000/svg" width="150" height="120" xmlns:xlink="http://www.w3.org/1999/xlink" xmlns:bx="https://boxy-svg.com">
    <defs>
    <linearGradient id="color-0-4" gradientUnits="userSpaceOnUse" x1="700.209" y1="909.551" x2="700.209" y2="1226.637" xlink:href="#color-0"/>
    <linearGradient id="color-0" bx:pinned="true">
      <stop style="stop-color: #00b4db;" offset="0"/>
      <stop style="stop-color: #0083b0;" offset="1"/>
    </linearGradient>
    <radialGradient id="color-0-2" gradientUnits="userSpaceOnUse" cx="1352.404" cy="1057.09" r="225.596" xlink:href="#color-0"/>
    <linearGradient id="color-0-0" gradientUnits="userSpaceOnUse" x1="1028.867" y1="470.27" x2="1028.867" y2="1212.941" xlink:href="#color-0"/>
    <radialGradient id="color-0-1" gradientUnits="userSpaceOnUse" cx="946.32" cy="1226.176" r="476.07" xlink:href="#color-0"/>
    <radialGradient id="color-0-3" gradientUnits="userSpaceOnUse" cx="788.646" cy="978.67" r="370.232" xlink:href="#color-0"/>
  </defs>
  <g transform="matrix(1, 0, 0, 1, 540.0000160932537, 540.0000160932542)" id="b4d81d29-4ddd-4162-aa0c-671b9c7319ad"/>
  <g transform="matrix(1, 0, 0, 1, 540.0000160932537, 540.0000160932542)" id="1c90d3f0-2389-4837-a0ee-38d3118956cd"/>
  <g transform="matrix(1, 0, 0, 1, 240.20000410675982, 608.0900449779639)" clip-path="url(#CLIPPATH_14)">
    <clipPath id="CLIPPATH_14">
      <path transform="matrix(1 0 0 1 0 0.01) translate(-700.21, -1068.1)" clip-path="url(#undefined)" d="M 748.945312 987.039062 C 745.660156 980.808594 743.785156 977.261719 743.785156 977.261719 C 736.8125 964.039062 730.613281 950.371094 723.734375 937.089844 L 691.503906 1163.210938 C 689.742188 1172.710938 685.253906 1180.179688 678.046875 1185.628906 C 670.828125 1191.089844 662.652344 1193.820312 653.507812 1193.820312 L 645.058594 1193.820312 L 645.058594 1199.101562 L 755.363281 1199.101562 L 755.363281 1194.351562 L 746.925781 1194.351562 C 743.394531 1194.351562 740.058594 1193.289062 736.886719 1191.179688 C 728.789062 1186.25 725.28125 1179.738281 726.332031 1171.640625 L 748.945312 987.039062" stroke-linecap="round"/>
    </clipPath>
    <path style="stroke: none; stroke-width: 1; stroke-dasharray: none; stroke-linecap: butt; stroke-dashoffset: 0; stroke-linejoin: miter; stroke-miterlimit: 4; fill-rule: nonzero; opacity: 1; fill: url('#color-0-4');" vector-effect="non-scaling-stroke" transform=" translate(-700.21, -1068.09)" d="M 820.773438 954.589844 L 652.421875 909.550781 L 579.644531 1181.601562 L 747.996094 1226.636719 Z M 820.773438 954.589844" stroke-linecap="round"/>
  </g>
  <g transform="matrix(1, 0, 0, 1, 892.4099997404209, 597.0900446501383)" clip-path="url(#CLIPPATH_15)">
    <clipPath id="CLIPPATH_15">
      <path transform="matrix(1 0 0 1 0 -1.26) translate(-1352.4, -1055.82)" clip-path="url(#undefined)" d="M 1479.300781 1252.921875 C 1465.21875 1245.878906 1451.410156 1236.898438 1437.859375 1226 C 1424.308594 1215.089844 1412 1203.570312 1400.921875 1191.429688 C 1389.839844 1179.289062 1379.71875 1167.410156 1370.570312 1155.808594 C 1361.410156 1144.191406 1352.628906 1133.03125 1344.179688 1122.289062 C 1335.730469 1111.558594 1328.949219 1102.949219 1323.851562 1096.429688 C 1318.761719 1089.921875 1312.601562 1082.441406 1305.390625 1073.988281 C 1298.171875 1065.539062 1289.71875 1056.578125 1280.050781 1047.078125 C 1270.371094 1037.570312 1258.320312 1028.960938 1243.898438 1021.21875 C 1246.359375 1021.570312 1248.648438 1021.738281 1250.761719 1021.738281 C 1275.390625 1021.738281 1297.289062 1012.5 1316.46875 994.039062 C 1335.640625 975.558594 1345.238281 951.550781 1345.238281 921.988281 C 1345.238281 892.429688 1335.378906 869.558594 1315.679688 853.378906 C 1290.691406 832.621094 1255.5 822.238281 1210.121094 822.238281 L 1126.808594 822.238281 L 1130.929688 845.460938 L 1189.011719 845.460938 C 1191.460938 845.460938 1193.878906 845.570312 1196.261719 845.789062 C 1212.890625 847.261719 1227.351562 853.941406 1239.679688 865.769531 C 1253.75 879.328125 1260.78125 898.601562 1260.78125 923.570312 C 1260.78125 957.710938 1249.351562 981.101562 1226.480469 993.769531 C 1211.351562 1001.859375 1194.808594 1005.910156 1176.871094 1005.910156 L 1166.308594 1005.910156 L 1166.308594 1011.179688 C 1173.699219 1012.949219 1183.550781 1023.511719 1195.859375 1042.851562 C 1202.898438 1052.710938 1218.390625 1075.578125 1242.320312 1111.46875 C 1266.238281 1147.359375 1282.601562 1171.628906 1291.410156 1184.308594 C 1291.539062 1184.511719 1291.671875 1184.710938 1291.800781 1184.910156 C 1332.421875 1246.621094 1400.25 1285.429688 1474.039062 1289.058594 C 1532.589844 1291.941406 1578 1276.140625 1578 1276.140625 C 1542.109375 1275.789062 1509.199219 1268.039062 1479.300781 1252.921875" stroke-linecap="round"/>
    </clipPath>
    <path style="stroke: none; stroke-width: 1; stroke-dasharray: none; stroke-linecap: butt; stroke-dashoffset: 0; stroke-linejoin: miter; stroke-miterlimit: 4; fill-rule: nonzero; opacity: 1; fill: url('#color-0-2');" vector-effect="non-scaling-stroke" transform=" translate(-1352.4, -1057.09)" d="M 1126.808594 822.238281 L 1126.808594 1291.941406 L 1578 1291.941406 L 1578 822.238281 Z M 1126.808594 822.238281" stroke-linecap="round"/>
  </g>
  <g transform="matrix(1, 0, 0, 1, 568.8700120708344, 382.60999675422875)" clip-path="url(#CLIPPATH_16)">
    <clipPath id="CLIPPATH_16">
      <path transform="matrix(1 0 0 1 0 0) translate(-1028.87, -841.61)" clip-path="url(#undefined)" d="M 999.976562 489.800781 C 1281.75 489.800781 1510.179688 718.21875 1510.179688 1000 C 1510.179688 1071.71875 1495.351562 1139.96875 1468.640625 1201.898438 C 1474.109375 1205.949219 1479.628906 1209.640625 1485.160156 1212.941406 C 1513.800781 1147.769531 1529.699219 1075.738281 1529.699219 1000 C 1529.699219 707.441406 1292.539062 470.269531 999.976562 470.269531 C 794.136719 470.269531 615.722656 587.679688 528.035156 759.171875 C 537.878906 753.589844 547.90625 748.800781 558.082031 744.839844 C 646.308594 592.371094 811.160156 489.800781 999.976562 489.800781" stroke-linecap="round"/>
    </clipPath>
    <path style="stroke: none; stroke-dasharray: none; stroke-linecap: butt; stroke-dashoffset: 0; stroke-linejoin: miter; stroke-miterlimit: 4; fill-rule: nonzero; opacity: 1; fill: url('#color-0-0'); paint-order: stroke; vector-effect: non-scaling-stroke; stroke-width: 11px;" transform=" translate(-1028.87, -841.61)" d="M 528.035156 470.269531 L 528.035156 1212.941406 L 1529.699219 1212.941406 L 1529.699219 470.269531 Z M 528.035156 470.269531" stroke-linecap="round"/>
  </g>
  <g transform="matrix(1, 0, 0, 1, 486.3200218176843, 766.1700057438012)" clip-path="url(#CLIPPATH_17)">
    <clipPath id="CLIPPATH_17">
      <path transform="matrix(1 0 0 1 0 0) translate(-946.32, -1226.18)" clip-path="url(#undefined)" d="M 999.980469 1510.199219 C 718.519531 1510.199219 490.960938 1283.640625 489.777344 1002.191406 C 489.664062 975.128906 491.664062 948.558594 495.609375 922.621094 C 495.507812 922.75 495.410156 922.878906 495.3125 923 C 479.027344 943.859375 470.453125 969.699219 470.265625 996.160156 C 470.253906 997.429688 470.25 998.71875 470.25 1000 C 470.25 1292.558594 707.417969 1529.730469 999.976562 1529.730469 C 1172.449219 1529.730469 1325.671875 1447.289062 1422.390625 1319.679688 C 1415.558594 1318.03125 1408.808594 1316.140625 1402.148438 1313.960938 C 1308.769531 1433.410156 1163.351562 1510.199219 999.980469 1510.199219" stroke-linecap="round"/>
    </clipPath>
    <path style="stroke: none; stroke-linecap: butt; stroke-dashoffset: 0; stroke-linejoin: miter; fill-rule: nonzero; opacity: 1; fill: url('#color-0-1'); stroke-width: 5px; stroke-miterlimit: 6.5;" vector-effect="non-scaling-stroke" transform=" translate(-946.32, -1226.18)" d="M 470.25 922.621094 L 470.25 1529.730469 L 1422.390625 1529.730469 L 1422.390625 922.621094 Z M 470.25 922.621094" stroke-linecap="round"/>
  </g>
  <g transform="matrix(1, 0, 0, 1, 328.64002444267305, 518.6699983677262)" clip-path="url(#CLIPPATH_18)">
    <clipPath id="CLIPPATH_18">
      <path transform="matrix(1 0 0 1 1.79 10.52) translate(-790.44, -989.19)" clip-path="url(#undefined)" d="M 568.28125 829.691406 C 586.980469 823.390625 606.9375 819.289062 626.746094 820.511719 C 632.96875 820.890625 643.40625 821.820312 656.097656 827.660156 C 689.515625 843.039062 710.429688 880.921875 727.5 911.660156 C 736.351562 927.601562 743.6875 944.398438 752.195312 960.53125 C 752.195312 960.53125 878.050781 1199.101562 878.050781 1199.101562 L 883.628906 1209.660156 L 888.375 1209.660156 C 888.4375 1206.238281 888.773438 1202.71875 889.382812 1199.101562 C 891.765625 1184.761719 898.285156 1168.761719 908.957031 1151.058594 L 1008.179688 979 L 1034.171875 1133.230469 L 1034.179688 1133.308594 L 1040.738281 1172.199219 C 1042.589844 1183.191406 1034.121094 1193.210938 1022.96875 1193.210938 L 1022.96875 1199.710938 L 1158.878906 1199.710938 L 1158.878906 1193.210938 C 1145.109375 1193.210938 1133 1184.070312 1129.261719 1170.820312 C 1125.878906 1158.859375 1123 1146.128906 1120.601562 1132.589844 L 1065.710938 822.238281 L 1060.960938 822.238281 L 907.898438 1085.621094 C 887.898438 1048.121094 867.898438 1010.621094 847.898438 973.121094 C 814.773438 911.011719 776.070312 847.671875 719.214844 800.339844 C 655.96875 747.679688 551.585938 756.378906 470.46875 860.03125 C 439.273438 899.890625 418.414062 956.359375 422.511719 999.53125 C 444.9375 879.710938 528.417969 843.101562 568.28125 829.691406" stroke-linecap="round"/>
    </clipPath>
    <path style="stroke: none; stroke-width: 1; stroke-dasharray: none; stroke-linecap: butt; stroke-dashoffset: 0; stroke-linejoin: miter; stroke-miterlimit: 4; fill-rule: nonzero; opacity: 1; fill: url('#color-0-3');" vector-effect="non-scaling-stroke" transform=" translate(-788.65, -978.67)" d="M 418.414062 747.679688 L 418.414062 1209.660156 L 1158.878906 1209.660156 L 1158.878906 747.679688 Z M 418.414062 747.679688" stroke-linecap="round"/>
  </g>
</svg>