<?xml version="1.0" encoding="UTF-8"?>
<svg width="147px" height="38px" viewBox="0 0 147 38" version="1.1" xmlns="http://www.w3.org/2000/svg" xmlns:xlink="http://www.w3.org/1999/xlink">
    <title>carelon-health-logo-r</title>
    <defs>
        <rect id="path-1" x="0" y="0" width="147" height="38"></rect>
    </defs>
    <g id="0.0-Carelon-Insights-(Home)" stroke="none" stroke-width="1" fill="none" fill-rule="evenodd">
        <g id="carelon-health-logo-r">
            <mask id="mask-2" fill="white">
                <use xlink:href="#path-1"></use>
            </mask>
            <g id="Mask"></g>
            <g id="chs_r_h_rgb_c" mask="url(#mask-2)" fill-rule="nonzero">
                <path d="M144.245912,21.9521281 L144.245912,22.3822673 L144.546197,22.3822673 C144.707133,22.3822673 144.85387,22.3550359 144.85387,22.1638622 C144.85387,21.979915 144.707133,21.9521281 144.546197,21.9521281 L144.245912,21.9521281 Z M146,22.5105706 C146,23.3573804 145.370279,24 144.503709,24 C143.657626,24 143,23.3301177 143,22.5105706 C143,21.6837913 143.657626,21 144.503709,21 C145.349777,21 146,21.6837913 146,22.5105706 Z M143.286963,22.5105706 C143.286963,23.1798956 143.81135,23.74017 144.50371,23.74017 C145.209726,23.74017 145.72044,23.2071582 145.72044,22.5105706 C145.72044,21.8267793 145.18865,21.2665049 144.50371,21.2665049 C143.81135,21.2665049 143.286963,21.8267793 143.286963,22.5105706 Z M143.922954,21.697143 L144.538443,21.697143 C144.776425,21.697143 145.147087,21.7655792 145.147087,22.1617205 C145.147087,22.4627222 144.915934,22.5717727 144.706399,22.5990353 L145.244444,23.2961783 L144.894858,23.2961783 L144.384703,22.6129443 L144.223575,22.6129443 L144.223575,23.2961783 L143.922954,23.2961783 L143.922954,21.697143 Z" id="Legal_Mark_00000088120367550305793730000014448645784528759483_" fill="#5009B5"></path>
                <path d="M112.029399,34.781788 L108.458604,34.781788 L108.458604,37.8516693 L107,37.8516693 L107,30.5364078 L108.458604,30.5364078 L108.458604,33.4465773 L112.029399,33.4465773 L112.029399,30.5364078 L113.488002,30.5364078 L113.488002,37.8516693 L112.029399,37.8516693 L112.029399,34.781788 L112.029399,34.781788 Z M120.138472,35.5006753 L115.995922,35.5006753 C116.14771,36.2539463 116.731104,36.7788538 117.582916,36.7788538 C118.15479,36.7788538 118.633192,36.5392247 118.959926,36.2082971 L119.695107,37.1669309 C119.263262,37.6348062 118.469885,38 117.536359,38 C115.797578,38 114.537319,36.7104386 114.537319,35.1127156 C114.537319,33.5263755 115.739263,32.2368141 117.349654,32.2368141 C118.948287,32.2368141 120.173509,33.435077 120.173509,35.0100341 C120.173509,35.192631 120.16187,35.4093769 120.138472,35.5006753 Z M116.03096,34.5306585 L118.703146,34.5306585 C118.5282,33.8002709 118.0264,33.4123111 117.372932,33.4123111 C116.696186,33.4123111 116.206026,33.8688034 116.03096,34.5306585 Z M125.341984,32.3851448 L126.765671,32.3851448 L126.765671,37.8516693 L125.341984,37.8516693 L125.341984,37.0756324 C124.968566,37.6348062 124.385173,38 123.626594,38 C122.156351,38 120.954407,36.8246204 120.954407,35.1127156 C120.954407,33.4693433 122.086396,32.2368141 123.626594,32.2368141 C124.385173,32.2368141 124.968566,32.5677417 125.341984,33.1041495 L125.341984,32.3851448 Z M125.341984,35.1127156 C125.341984,34.2339972 124.723546,33.5378758 123.860095,33.5378758 C122.996524,33.5378758 122.378093,34.2339972 122.378093,35.1127156 C122.378093,35.9914339 122.996524,36.6990556 123.860095,36.6990556 C124.723546,36.6990556 125.341984,35.9914339 125.341984,35.1127156 Z M130.428858,37.8630523 C130.218875,37.9315848 129.950457,37.9772341 129.740473,37.9772341 C128.935218,37.9772341 128.118443,37.4750925 128.118443,36.0827323 L128.118443,30 L129.542129,30 L129.542129,36.1169986 C129.542129,36.5392247 129.78715,36.6990556 130.043809,36.6990556 C130.113883,36.6990556 130.207236,36.6761724 130.27719,36.6420234 L130.428858,37.8630523 Z M130.580166,32.3851448 L131.560368,32.3851448 L131.560368,30.9700168 L132.995694,30.9700168 L132.995694,32.3851448 L134.500973,32.3851448 L134.500973,33.617674 L133.007333,33.617674 L133.007333,35.9457847 C133.007333,36.4594265 133.217316,36.6990556 133.637402,36.6990556 C133.905821,36.6990556 134.16248,36.5848739 134.302629,36.4251602 L134.932699,37.4637096 C134.629243,37.7603709 134.104165,38 133.41566,38 C132.28379,38 131.560368,37.3152616 131.560368,35.9800509 L131.560368,33.617674 L130.580166,33.617674 L130.580166,32.3851448 L130.580166,32.3851448 Z M141,34.5421589 L141,37.8516693 L139.576329,37.8516693 L139.576329,34.7475217 C139.576329,34.0057511 139.144603,33.5378758 138.444459,33.5378758 C137.744315,33.5378758 137.30095,34.0057511 137.30095,34.7475217 L137.30095,37.8516693 L135.877264,37.8516693 L135.877264,30 L137.30095,30 L137.30095,33.1611816 C137.592647,32.5791246 138.152762,32.2368141 138.887944,32.2368141 C140.171481,32.2368141 141,33.1155324 141,34.5421589 Z" id="Modifer" fill="#5009B5"></path>
                <path d="M45.7709199,10.5986527 C43.030007,10.5986527 41.1797778,12.6839673 41.1797778,15.3162643 C41.1797778,17.9485613 43.0642904,20.0680835 45.7366402,20.0680835 C47.4154707,20.0680835 48.7514888,19.4868954 49.7792953,18.46134 L51.9037736,21.5383114 C50.6017218,22.9740257 48.2375875,23.9995811 45.6337972,23.9995811 C40.7687157,23.9995811 37,20.1022882 37,15.3504709 C37,10.564447 40.7687156,6.66715403 45.5652377,6.66715403 C48.3747102,6.66715403 50.6017218,7.62429673 52.0405866,9.12842327 L49.6424785,12.1027778 C48.6146758,11.1114295 47.3811872,10.5986527 45.7709199,10.5986527 Z M65.1127221,21.7435473 C63.9134611,23.1454328 62.2345485,24 60.1102791,24 C55.7588899,24 52.2296587,20.4445923 52.2296587,15.3504709 C52.2296587,10.3931795 55.5531929,6.66673525 60.1102791,6.66673525 C62.2688319,6.66673525 63.9477408,7.45288831 65.1127221,8.78635788 L65.1127221,7.14533008 L69.3269886,7.14533008 L69.3269886,23.521406 L65.1127221,23.521406 L65.1127221,21.7435473 Z M65.1127221,15.3162643 C65.1127221,12.6838389 63.2966869,10.5984237 60.7956165,10.5984237 C58.2599567,10.5984237 56.4099439,12.6838388 56.4099439,15.3162643 C56.4099439,17.9486898 58.2599567,20.0683125 60.7956165,20.0683125 C63.2966869,20.0683125 65.1127221,17.9486898 65.1127221,15.3162643 Z M76.5207271,23.5214056 L72.3404344,23.5214056 L72.3404344,7.14533011 L76.5207271,7.14533011 L76.5207271,8.92318797 C77.4457279,7.55550993 78.8164101,6.66673528 80.5295986,6.66673528 C81.6260205,6.66673528 82.5167416,6.97429301 83.1677955,7.4870949 L81.4203272,11.4529909 C80.8721125,11.0086031 80.049645,10.7349448 79.2617706,10.7349448 C77.5828617,10.7349448 76.5207271,12.1368295 76.5207271,14.3590746 L76.5207271,23.5214056 L76.5207271,23.5214056 Z M82.5843833,15.3504709 C82.5843833,10.5642162 86.1475884,6.66673528 90.8757748,6.66673528 C95.5699875,6.66673528 99.1331926,10.290557 99.1331926,15.0087057 C99.1331926,15.5215076 99.0989129,16.1027255 99.0306519,16.3760747 L86.8672092,16.3760747 C87.2782825,18.6667353 89.0257583,20.3077641 91.5611085,20.3077641 C93.2057376,20.3077641 94.6106995,19.5897181 95.5699875,18.5983209 L97.7285441,21.4359896 C96.4949958,22.8717746 94.1650256,24 91.3897023,24 C86.2847148,24 82.5843833,20.102519 82.5843833,15.3504709 Z M86.9357687,13.7436502 L94.8503667,13.7436502 C94.3707189,11.4187834 92.8975035,10.2221429 90.9443343,10.2221429 C88.8543447,10.2221429 87.4154164,11.658235 86.9357687,13.7436502 Z M100.845456,0 L105.025741,0 L105.025741,23.521405 L100.845456,23.521405 L100.845456,12.4100729 L100.845456,0 Z M106.944011,15.3504709 C106.944011,10.5642162 110.71291,6.66673528 115.475383,6.66673528 C120.237849,6.66673528 124.041035,10.5642162 124.041035,15.3504709 C124.041035,20.102519 120.237849,24 115.475383,24 C110.71291,24 106.944011,20.102519 106.944011,15.3504709 Z M119.826769,15.3162643 C119.826769,12.6838389 118.010733,10.5984237 115.509663,10.5984237 C112.974007,10.5984237 111.12399,12.6838388 111.12399,15.3162643 C111.12399,17.9486898 112.974007,20.0683125 115.509663,20.0683125 C118.010733,20.0683125 119.826769,17.9486898 119.826769,15.3162643 Z M130.138665,23.5214056 L125.958686,23.5214056 L125.958686,7.14533011 L130.138665,7.14533011 L130.138665,8.75215131 C131.16652,7.41868079 132.742582,6.66673525 134.763997,6.66673525 C138.567183,6.66673525 141,9.33336731 141,13.606821 L141,23.5214056 L136.820021,23.5214056 L136.820021,14.2222455 C136.820021,12.0000003 135.517913,10.5984238 133.496483,10.5984238 C131.406493,10.5984238 130.138665,12.0000003 130.138665,14.2222455 L130.138665,23.5214056 Z" id="Wordmark" fill="#5009B5"></path>
                <g id="Symbol">
                    <path d="M7.72070512,0 C3.45667055,0 0,3.45685763 0,7.72110425 C0,11.9853509 3.45667055,15.4395202 7.72070512,15.4395202 C8.12531893,15.4395202 8.61424029,15.4042443 9.00017035,15.3376207 L9.27467327,15.9982419 L7.72778268,19.7541366 C8.23929029,19.7548944 8.75937681,19.8430463 9.26780789,20.0281066 C9.62852981,20.159408 9.96236701,20.3318887 10.2660279,20.5381998 L12.135358,15.9982419 L10.2768034,11.4535685 C9.11403657,12.2484987 7.59815534,12.4904267 6.17361749,11.9719067 C3.82607769,11.1174422 2.61569118,8.52159675 3.47011385,6.17393971 C4.3245512,3.82629831 6.92026759,2.61583646 9.26779249,3.47031677 C11.1069007,4.13972022 12.2480257,5.87788722 12.2452523,7.72819711 L15.3339858,9.00039135 C15.4034297,8.58408718 15.44141,8.1571273 15.44141,7.72110402 C15.44141,3.45685763 11.984739,0 7.72070512,0 Z" id="Purple" fill="#5009B5"></path>
                    <path d="M24.2792787,5.73615112e-06 C20.0152439,5.73615112e-06 16.5585575,3.45686336 16.5585575,7.72110998 C16.5585575,8.12574392 16.5962698,8.61432017 16.663268,9.00063222 L16.0002652,9.27486745 L12.2452525,7.72827883 C12.2444796,8.23978158 12.1563481,8.75986363 11.9712961,9.26828969 C11.840077,9.62883346 11.667711,9.96250445 11.4615617,10.2660441 L16.0002652,12.1356944 L20.5469991,10.2773203 C19.7521085,9.11449559 19.5101925,7.59855411 20.0286867,6.17394592 C20.8831096,3.8262889 23.4788109,2.61582727 25.8263502,3.47030734 C28.1738896,4.3247725 29.3842917,6.92061751 28.5298536,9.26825915 C27.8604837,11.1074589 26.1224032,12.2486558 24.272186,12.2458822 L22.9993096,15.3347541 C23.415594,15.4042166 23.8432772,15.4421988 24.2792787,15.4421988 C28.5433135,15.4421988 32,11.9853415 32,7.72110976 C32,3.45686331 28.5433135,5.73615112e-06 24.2792787,5.73615112e-06 Z" id="Cyan" fill="#44B8F3"></path>
                    <path d="M16.0002652,19.8641436 L11.4529989,21.7226826 C12.2478896,22.885494 12.4897904,24.4014644 11.9713113,25.8260735 C11.1168742,28.1737145 8.52117296,29.3841768 6.17363266,28.5296962 C3.82609286,27.6752327 2.61569118,25.0793873 3.47012903,22.7317293 C4.13951436,20.8925447 5.87759489,19.7513479 7.72781277,19.7541366 L8.9999286,16.6652504 C8.58364513,16.5958031 8.15672163,16.5569029 7.72070489,16.5569029 C3.45668572,16.5569029 0,20.0146631 0,24.2788948 C0,28.5431397 3.45668572,32 7.72070512,32 C11.984739,32 15.4414017,28.5431397 15.4414017,24.2788948 C15.4414017,23.874275 15.4069952,23.4084207 15.3354873,22.9993829 L16.0002652,22.7251363 L19.7547455,24.2718775 C19.7555033,23.7603292 19.8436357,23.2402159 20.0287019,22.7317293 C20.159921,22.3711855 20.332287,22.0375003 20.5384363,21.7339606 L16.0002652,19.8641436 Z" id="Light_Purple" fill="#794CFF"></path>
                    <path d="M24.2792787,16.5569105 C23.8746791,16.5569105 23.390419,16.594799 22.9993115,16.6625526 L22.7255976,15.9989239 L24.2720951,12.2458766 C23.7606178,12.2451037 23.2405909,12.1569527 22.7321902,11.9719066 C22.3714673,11.8406052 22.037632,11.6681245 21.7339711,11.4617983 L19.8647623,15.9989239 L21.7231937,20.5464296 C22.8859473,19.7514994 24.4018423,19.5095714 25.8263806,20.0280914 C28.1739048,20.8825568 29.3843069,23.4784023 28.5298688,25.8260584 C27.6754478,28.1736993 25.0797314,29.3841616 22.7322053,28.5296811 C20.8930971,27.8602779 19.7519721,26.1220957 19.7547456,24.2718017 L16.666013,22.9995952 C16.5965691,23.4159003 16.5585557,23.8428715 16.5585557,24.2788948 C16.5585557,28.5431398 20.0152591,32 24.2792788,32 C28.5433287,32 32,28.5431398 32,24.2788948 C32,20.0146499 28.5433287,16.5569105 24.2792787,16.5569105 Z" id="Turquoise" fill="#00BBBA"></path>
                </g>
            </g>
        </g>
    </g>
</svg>